# xmcd
#
# Track frame offsets:
#	150
#	16124
#	34555
#	48235
#	67908
#	84423
#	101212
#	117997
#	136837
#	153918
#	169676
#
# Disc length: 2475 seconds
#
# Revision: 0
# Processed by: cddbd v1.5.2PL0 Copyright (c) Steve Scherf et al.
# Submitted via: EasyCDDAExtractor 10.2.0.1
#
DISCID=7c09a90b
DTITLE=Adriel e Samuel - Viver sem você
DYEAR=2007
DGENRE=Sertanejo
TTITLE0=Deixei de ser cowboi por ela
TTITLE1=Anjo
TTITLE2=Nova York
TTITLE3=Viver sem você
TTITLE4=Eu sem você
TTITLE5=Diz pro meu olhar
TTITLE6=Instinto animal
TTITLE7=Agora vai
TTITLE8=No fim desta estrada
TTITLE9=Perdi você
TTITLE10=De igual pra igual
EXTD=
EXTT0=
EXTT1=
EXTT2=
EXTT3=
EXTT4=
EXTT5=
EXTT6=
EXTT7=
EXTT8=
EXTT9=
EXTT10=
PLAYORDER=
